:SAMPLES-PER-SECOND 30
:FULLY-SPECIFIED
:DEGREES
472
root  50.0502 23.0277 -13.855 156.223 -66.1614 -151.466
RightUpLeg  -18.8505 -18.9962 -15.3051
RightLeg  75.17 2.40003 6.8855
RightFoot  -32.7573 -0.595779 -1.64937
RightToes  -65.7041 -0.449027 -0.41883
Spine  16.7595 4.48972 -0.16452
Spine1  29.9684 15.9359 -7.43465
HEad  6.09266 22.8191 -15.7178
LeftShoulder1  0 -2.42657e-020 -4.95415e-022
LeftArm  -51.465 -13.2054 -85.074
LeftForeArm  23.2237 -15.9744 -2.88894
LeftHand  0.0258819 -0.374664 -8.42932
RightShoulder  0 2.42657e-020 1.07489e-018
RightArm  -17.4351 26.5825 87.1233
RightForeArm  45.6753 24.8333 4.657
RightHand  -0.627316 28.2056 -2.127
LeftUpLeg  -84.3259 26.6656 -4.11488
LeftLeg  55.7787 2.8104 3.59447
LeftFoot  -2.40523 0.0146554 0.6981
LeftToes  -9.53404 2.37847e-007 4.89147e-008
473
root  48.161 22.6348 -14.8169 151.869 -67.2939 -146.443
RightUpLeg  -12.7863 -17.9061 -14.3381
RightLeg  72.7385 1.74696 4.34947
RightFoot  -34.2876 -0.24711 -0.423513
RightToes  -67.4447 -0.465861 -0.419677
Spine  16.6145 6.88014 -1.79966
Spine1  28.5759 21.9661 -11.2816
HEad  5.12156 22.0537 -14.5261
LeftShoulder1  0 -2.42657e-020 -4.95415e-022
LeftArm  -54.7827 -12.7351 -84.4737
LeftForeArm  22.1451 -14.5967 -2.6285
LeftHand  -0.0599852 0.71216 -9.9029
RightShoulder  0 2.42657e-020 1.07489e-018
RightArm  -27.6528 33.7119 94.1437
RightForeArm  66.4469 8.87064 1.51868
RightHand  0.907223 28.9312 3.88648
LeftUpLeg  -85.8248 26.9777 -5.9488
LeftLeg  60.593 4.66523 7.10417
LeftFoot  -4.89648 0.0237084 0.554493
LeftToes  -2.27837 2.37847e-007 4.89147e-008
474
root  45.9984 22.729 -15.4982 142.409 -71.2326 -135.551
RightUpLeg  -4.73406 -18.8708 -13.63
RightLeg  66.8901 1.40411 2.64136
RightFoot  -31.4637 -0.00556392 0.357804
RightToes  -71.0943 -0.501366 -0.41941
Spine  15.7214 8.1987 -3.92217
Spine1  25.9403 24.493 -14.5505
HEad  4.38288 19.3076 -10.5675
LeftShoulder1  0 -2.42657e-020 -4.95415e-022
LeftArm  -57.9717 -10.8308 -81.7377
LeftForeArm  21.6146 -14.3224 -2.57708
LeftHand  0.00553799 -0.0689756 -10.6163
RightShoulder  0 2.42657e-020 1.07489e-018
RightArm  -26.1054 34.3097 97.9302
RightForeArm  78.5974 1.19617 0.128907
RightHand  1.97257 24.3946 9.47965
LeftUpLeg  -85.8149 22.2207 -5.65911
LeftLeg  63.8275 3.64772 6.31311
LeftFoot  -5.85142 0.0331327 0.648275
LeftToes  20.4564 2.37847e-007 4.89147e-008
475
root  43.6323 23.2792 -15.9173 121.554 -77.4237 -110.806
RightUpLeg  1.61128 -20.4495 -11.3054
RightLeg  58.9823 -0.661199 -1.03704
RightFoot  -23.3685 0.36086 2.12243
RightToes  -77.303 -0.56207 -0.417643
Spine  14.3719 8.05592 -6.36631
Spine1  22.3354 23.742 -18.1545
HEad  3.72706 14.8023 -4.97235
LeftShoulder1  0 -2.42657e-020 -4.95415e-022
LeftArm  -62.1805 -8.47239 -76.0679
LeftForeArm  23.5712 -14.5163 -2.61321
LeftHand  0.287373 -2.33603 -14.4369
RightShoulder  0 2.42657e-020 1.07489e-018
RightArm  -25.2149 28.8999 101.001
RightForeArm  75.4098 3.31833 0.510046
RightHand  1.14282 21.8108 6.29831
LeftUpLeg  -87.1337 13.4656 -5.58947
LeftLeg  67.8377 1.96178 4.02832
LeftFoot  -6.11622 0.0501416 0.938515
LeftToes  22.652 2.37847e-007 4.89147e-008
476
root  41.1078 24.1332 -16.1345 80.9335 -79.1779 -65.4666
RightUpLeg  2.9076 -17.6825 -4.40072
RightLeg  54.0467 -6.35036 -7.66065
RightFoot  -7.90158 0.163457 2.74421
RightToes  -83.9538 -0.626818 -0.411564
Spine  13.7778 7.35771 -8.4502
Spine1  20.7544 21.917 -21.0568
HEad  3.00785 10.3883 0.179227
LeftShoulder1  0 -2.42657e-020 -4.95415e-022
LeftArm  -62.165 -7.17149 -69.6336
LeftForeArm  18.3419 -16.1582 -2.92399
LeftHand  0.553326 -3.33018 -19.2719
RightShoulder  0 2.42657e-020 1.07489e-018
RightArm  -34.1763 24.0237 103.735
RightForeArm  79.7564 6.5967 1.07641
RightHand  -0.665767 24.4738 -2.69969
LeftUpLeg  -86.8397 7.47571 -7.19332
LeftLeg  69.3409 3.95875 8.66191
LeftFoot  -7.69177 0.0132473 0.197052
LeftToes  16.3207 2.37847e-007 4.89147e-008
477
root  38.5814 25.1586 -16.1192 48.6013 -73.958 -28.7452
RightUpLeg  0.401494 -14.4783 2.95337
RightLeg  54.2041 -10.0299 -11.987
RightFoot  7.81484 0.105906 -1.17277
RightToes  -64.7266 -0.43961 -0.408541
Spine  13.8253 6.0086 -9.91955
Spine1  21.4419 18.5392 -22.3545
HEad  1.24138 6.73439 4.89388
LeftShoulder1  0 -2.42657e-020 -4.95415e-022
LeftArm  -59.3033 -5.89066 -63.2329
LeftForeArm  14.6999 -19.502 -3.57336
LeftHand  1.0463 -4.39324 -27.1915
RightShoulder  0 2.42657e-020 1.07489e-018
RightArm  -25.9535 19.2531 104.659
RightForeArm  64.4727 11.9099 2.07517
RightHand  -2.00681 24.7947 -8.74338
LeftUpLeg  -84.9779 2.11096 -9.58655
LeftLeg  68.8412 3.05849 6.55983
LeftFoot  -10.5334 0.0108266 0.11744
LeftToes  19.2067 2.37847e-007 4.89147e-008
478
root  36.0533 26.196 -15.9654 38.6577 -65.4738 -14.9284
RightUpLeg  -5.41038 -13.1685 8.80054
RightLeg  56.7473 -5.60251 -7.46535
RightFoot  5.37577 0.0348634 -0.365008
RightToes  -51.0221 -0.31196 -0.368559
Spine  14.004 4.93963 -9.94534
Spine1  22.8621 15.6589 -21.2659
HEad  0.0411036 2.54969 7.45198
LeftShoulder1  0 -2.42657e-020 -4.95415e-022
LeftArm  -58.1714 -4.05337 -59.3969
LeftForeArm  6.76757 -22.985 -4.27605
LeftHand  0.935967 -3.88267 -27.5145
RightShoulder  0 2.42657e-020 1.07489e-018
RightArm  -24.923 14.7017 102.72
RightForeArm  52.7385 17.6466 3.18114
RightHand  -1.43308 24.9502 -6.10245
LeftUpLeg  -81.9917 -1.10712 -11.0561
LeftLeg  67.5206 3.02276 6.11316
LeftFoot  -10.1992 0.018396 0.20613
LeftToes  18.3126 2.37847e-007 4.89147e-008
479
root  33.4761 27.0935 -15.5687 34.2968 -57.4597 -8.37854
RightUpLeg  -11.5961 -14.9136 10.9833
RightLeg  60.4591 -3.40928 -5.27564
RightFoot  -0.613094 -0.000144032 0.351028
RightToes  -52.1119 -0.321725 -0.372845
Spine  14.6425 4.20016 -9.19392
Spine1  25.0103 13.5352 -19.3363
HEad  -0.439181 -0.804407 8.83923
LeftShoulder1  0 -2.42657e-020 -4.95415e-022
LeftArm  -59.2568 -2.09449 -57.4876
LeftForeArm  1.39511 -26.2732 -4.97372
LeftHand  1.12948 -4.03639 -31.6764
RightShoulder  0 2.42657e-020 1.07489e-018
RightArm  -26.2374 11.279 99.162
RightForeArm  46.4561 22.8752 4.24163
RightHand  -0.472198 26.0535 -1.67115
LeftUpLeg  -77.5058 -0.95121 -13.6887
LeftLeg  66.1998 -0.151409 -0.304489
LeftFoot  -10.8883 0.134523 1.41142
LeftToes  19.6427 2.37847e-007 4.89147e-008
480
root  30.9191 27.9317 -15.0209 31.3471 -49.5527 -3.45865
RightUpLeg  -19.1124 -17.6358 11.1062
RightLeg  65.0456 -5.83381 -10.6545
RightFoot  -5.57256 0.0482785 1.36969
RightToes  -46.3203 -0.270838 -0.347971
Spine  15.13 3.17897 -8.22783
Spine1  26.841 10.7113 -17.1285
HEad  -0.557728 -3.46364 11.1151
LeftShoulder1  0 -2.42657e-020 -4.95415e-022
LeftArm  -57.3125 0.0387952 -56.4145
LeftForeArm  -4.23077 -29.6645 -5.73526
LeftHand  1.24645 -3.97636 -35.2248
RightShoulder  0 2.42657e-020 1.07489e-018
RightArm  -28.2625 9.08057 95.7914
RightForeArm  41.3652 25.1947 4.741
RightHand  -0.553719 26.5756 -1.97476
LeftUpLeg  -72.1873 -1.48868 -14.7593
LeftLeg  64.7525 -3.83158 -6.9064
LeftFoot  -13.0504 0.332047 2.90235
LeftToes  20.3583 2.37847e-007 4.89147e-008
481
root  28.3907 28.7893 -14.3514 30.0429 -42.5693 -0.69696
RightUpLeg  -27.1443 -17.9663 9.60148
RightLeg  68.7492 -6.59467 -14.0108
RightFoot  -10.0521 0.217654 2.85222
RightToes  -37.9467 -0.202292 -0.303232
Spine  15.3358 2.67406 -7.12443
Spine1  27.9334 8.90917 -14.6715
HEad  -1.1013 -7.28416 15.2384
LeftShoulder1  0 -2.42657e-020 -4.95415e-022
LeftArm  -51.9964 2.59877 -56.4967
LeftForeArm  -10.8864 -36.5696 -7.47384
LeftHand  0.726703 -2.42567 -33.8124
RightShoulder  0 2.42657e-020 1.07489e-018
RightArm  -32.3479 6.37351 92.6935
RightForeArm  42.3908 27.9732 5.35555
RightHand  -0.785994 25.6859 -3.07734
LeftUpLeg  -66.5952 -2.37213 -13.6918
LeftLeg  62.723 -6.83343 -11.2301
LeftFoot  -14.4213 0.516018 4.0769
LeftToes  19.1696 2.37847e-007 4.89147e-008
482
root  25.849 29.5775 -13.6106 30.8979 -36.8653 -0.876404
RightUpLeg  -34.636 -16.2873 7.52117
RightLeg  69.6504 -5.83187 -12.9838
RightFoot  -13.2354 0.346632 3.36483
RightToes  -36.7089 -0.192741 -0.295787
Spine  15.0891 2.83965 -5.38356
Spine1  27.9967 8.57448 -11.589
HEad  -2.61459 -10.6214 18.7225
LeftShoulder1  0 -2.42657e-020 -4.95415e-022
LeftArm  -51.1273 6.17339 -60.2797
LeftForeArm  -10.0765 -48.7768 -11.5738
LeftHand  0.633477 -2.06369 -34.6058
RightShoulder  0 2.42657e-020 1.07489e-018
RightArm  -37.3397 3.4946 89.0756
RightForeArm  42.9479 31.4811 6.18143
RightHand  -1.16406 25.8793 -4.69443
LeftUpLeg  -61.7932 -4.1516 -9.34621
LeftLeg  60.4986 -8.36056 -12.5456
LeftFoot  -16.2842 0.663573 4.63558
LeftToes  15.9152 2.37847e-007 4.89147e-008
483
root  23.3229 30.1189 -12.7222 31.1081 -32.3293 -1.80618
RightUpLeg  -40.4988 -15.4855 4.1971
RightLeg  69.0401 -5.38125 -11.6977
RightFoot  -14.8244 0.397798 3.43478
RightToes  -36.2337 -0.189117 -0.292874
Spine  15.158 3.03654 -4.04579
Spine1  28.4896 8.24803 -8.59225
HEad  -4.58669 -12.8736 22.2184
LeftShoulder1  0 -2.42657e-020 -4.95415e-022
LeftArm  -52.0183 9.32652 -65.1684
LeftForeArm  -4.58534 -62.4438 -19.7509
LeftHand  0.529019 -1.75541 -34.0368
RightShoulder  0 2.42657e-020 1.07489e-018
RightArm  -41.4325 2.26806 85.5057
RightForeArm  39.4027 34.4062 6.92595
RightHand  -1.31241 25.2621 -5.48295
LeftUpLeg  -56.6449 -6.47493 -4.10104
LeftLeg  58.5933 -8.72826 -12.1987
LeftFoot  -18.723 0.827928 5.01892
LeftToes  11.0677 2.37847e-007 4.89147e-008
484
root  20.7101 30.4934 -11.7361 30.8596 -29.1755 -3.08356
RightUpLeg  -45.0515 -15.213 0.518387
RightLeg  66.615 -5.27136 -10.3156
RightFoot  -14.9449 0.367072 3.17574
RightToes  -36.0008 -0.18735 -0.291435
Spine  15.2766 3.42019 -3.23364
Spine1  28.755 8.49312 -6.61709
HEad  -5.6962 -14.6701 25.9105
LeftShoulder1  0 -2.42657e-020 -4.95415e-022
LeftArm  -51.9707 10.9052 -68.5942
LeftForeArm  14.3459 -74.0813 -38.3591
LeftHand  0.18755 -0.7225 -29.7475
RightShoulder  0 2.42657e-020 1.07489e-018
RightArm  -45.8471 2.30042 83.493
RightForeArm  33.6827 36.9895 7.63113
RightHand  -1.06387 23.7736 -4.68229
LeftUpLeg  -50.9099 -6.71105 0.431642
LeftLeg  56.7051 -9.38126 -12.2248
LeftFoot  -21.0867 1.04884 5.63084
LeftToes  5.49192 2.37847e-007 4.89147e-008
485
root  18.0692 30.6706 -10.6916 30.4288 -26.1044 -3.99597
RightUpLeg  -48.8869 -17.7624 -2.37319
RightLeg  62.063 -4.92016 -8.02453
RightFoot  -14.8084 0.295075 2.64803
RightToes  -37.0673 -0.19549 -0.297964
Spine  15.1374 3.43968 -2.55389
Spine1  28.3839 8.03715 -5.02223
HEad  -5.51864 -16.1605 28.0477
LeftShoulder1  0 -2.42657e-020 -4.95415e-022
LeftArm  -49.9374 10.462 -70.7692
LeftForeArm  58.7897 -79.6775 -77.3506
LeftHand  0.215002 -1.10698 -22.4899
RightShoulder  0 2.42657e-020 1.07489e-018
RightArm  -49.3619 3.08589 82.3901
RightForeArm  30.5353 39.3133 8.3058
RightHand  -1.15931 22.7826 -5.38087
LeftUpLeg  -45.1157 -5.56342 4.24226
LeftLeg  54.4933 -10.691 -12.8279
LeftFoot  -22.9509 1.33009 6.54515
LeftToes  -1.15984 2.37847e-007 4.89147e-008
486
root  15.4454 30.6463 -9.61465 30.0671 -22.3335 -4.0256
RightUpLeg  -52.263 -22.2796 -4.35949
RightLeg  55.1636 -3.54942 -4.51007
RightFoot  -12.6107 0.128858 1.54377
RightToes  -41.0541 -0.226958 -0.320999
Spine  14.755 3.00272 -1.97674
Spine1  27.455 6.58208 -3.47576
HEad  -5.1888 -17.3914 30.0535
LeftShoulder1  0 -2.42657e-020 -4.95415e-022
LeftArm  -46.5162 6.66951 -70.8055
LeftForeArm  93.5411 -79.5741 -104.434
LeftHand  0.108405 -0.806217 -15.821
RightShoulder  0 2.42657e-020 1.07489e-018
RightArm  -51.1591 4.16709 81.3983
RightForeArm  29.4621 41.6409 9.02802
RightHand  -1.39868 22.0262 -6.80964
LeftUpLeg  -40.2223 -5.49968 8.22272
LeftLeg  52.056 -12.3816 -13.5731
LeftFoot  -23.792 1.56757 7.43124
LeftToes  -10.4027 2.37847e-007 4.89147e-008
